<svg version="1.1" id="Layer_1" xmlns="http://www.w3.org/2000/svg" xmlns:xlink="http://www.w3.org/1999/xlink" x="0px" y="0px" width="16px" height="16px" viewBox="0 0 16 16" enable-background="new 0 0 16 16" xml:space="preserve">
  <g id="main">
    <g id="icon">
      <path d="M6.768,0.03906L6.557,0.151L5.796,0.6732L4.65,1.281L3.954,1.558L3.19,1.785L2.365,1.939L1.488,1.996L0.9119,1.971L0.8471,1.968L0.6027,2.009L0.3922,2.125L0.2303,2.302L0.133,2.529L0.03066,3.23L0.0007813,4.184L0.05762,5.328L0.2158,6.596L0.4902,7.924L0.8951,9.248L1.445,10.5L1.779,11.08L2.155,11.62L2.693,12.28L3.243,12.87L3.806,13.38L4.384,13.84L4.977,14.22L5.587,14.54L6.213,14.79L6.859,14.98L7.028,15L7.198,14.98L7.981,14.74L8.697,14.42L9.349,14.03L9.535,13.89L9.438,13.75L8.7,12.63L8.19,11.76L7.965,11.26L7.803,10.72L7.704,10.18L7.671,9.622L7.719,9.146L6.463,10.39L6.305,10.46L6.15,10.38L5.183,9.417L5.146,9.379L3.13,7.351L3.07,7.196L3.143,7.041L3.867,6.317L4.017,6.239L4.167,6.295L6.275,8.428L10.32,4.405L10.48,4.339L10.64,4.406L11.31,5.078L11.4,5.052L12.34,4.957L12.4,4.958L12.94,4.997L13.46,5.096L13.93,5.244L14,4.15L13.98,3.206L13.88,2.525L13.78,2.3L13.62,2.124L13.41,2.01L13.17,1.969L13.09,1.973L12.35,2.011L11.41,1.95L10.55,1.786L9.789,1.546L9.119,1.259L8.549,0.9508L8.084,0.6508L7.49,0.185L7.265,0.04785L7.004,0zz" fill="#eab765"/>
      <path d="M10.32,4.405L6.273,8.427L4.166,6.295L4.016,6.239L3.866,6.317L3.142,7.041L3.069,7.196L3.129,7.351L5.145,9.38L5.182,9.418L6.149,10.39L6.304,10.46L6.462,10.4L7.719,9.146L7.766,8.683L8.038,7.808L8.469,7.016L9.038,6.325L9.729,5.755L10.52,5.325L11.31,5.079L10.64,4.406L10.48,4.339zz" fill="#FFFFFF"/>
    </g>
    <g id="overlay">
      <path d="M12.3876,5.9578c-2.0478,-0.0285,-3.7168,1.623,-3.7168,3.6642c0,0.6059,0.1471,1.1775,0.4074,1.681c0.5174,1.0005,2.5047,3.7927,3.0925,4.6124c0.0809,0.1128,0.2484,0.1128,0.3294,0c0.5878,-0.8197,2.5751,-3.6118,3.0925,-4.6123c0.2623,-0.5073,0.4096,-1.0837,0.4074,-1.6947C15.9927,7.6196,14.3762,5.9855,12.3876,5.9578zM12.3354,10.9668c-0.7427,0,-1.3448,-0.6021,-1.3448,-1.3448c0,-0.7427,0.6021,-1.3448,1.3448,-1.3448c0.7427,0,1.3448,0.6021,1.3448,1.3448C13.6802,10.3647,13.0781,10.9668,12.3354,10.9668z" fill="#217346"/>
    </g>
  </g>
</svg>
