<svg version="1.1" id="Layer_1" xmlns="http://www.w3.org/2000/svg" xmlns:xlink="http://www.w3.org/1999/xlink" x="0px" y="0px" width="32px" height="32px" viewBox="0 0 32 32" enable-background="new 0 0 32 32" xml:space="preserve">
  <g id="main">
    <g id="icon">
      <path d="M14.54,0.09629L14.12,0.3211L13.46,0.7979L12.59,1.365L11.53,1.975L10.3,2.58L8.909,3.134L7.38,3.588L5.73,3.895L4.865,3.979L3.977,4.008L2.825,3.958L2.694,3.952L2.206,4.034L1.785,4.265L1.461,4.62L1.266,5.074L1.147,5.703L1.062,6.474L1.001,8.382L1.115,10.67L1.246,11.91L1.431,13.2L1.675,14.52L1.98,15.86L2.35,17.19L2.79,18.5L3.302,19.78L3.89,21.01L4.558,22.17L5.31,23.25L6.386,24.56L7.486,25.74L8.613,26.77L9.768,27.67L10.95,28.44L12.17,29.08L13.43,29.58L14.72,29.96L15.06,30L15.4,29.96L16.2,29.74L16.96,29.48L18.39,28.83L19.7,28.06L20.88,27.18L21.4,26.73L21.36,26.67L20.53,25.28L20.22,24.57L19.99,23.81L19.85,23.04L19.8,22.25L19.83,21.58L19.93,20.93L20.1,20.29L20.32,19.69L20.6,19.11L20.93,18.57L21.31,18.06L21.74,17.59L22.2,17.16L22.71,16.78L23.26,16.45L23.83,16.17L24.44,15.95L25.07,15.79L25.73,15.69L26.4,15.65L26.49,15.66L27.35,15.72L27.95,15.85L27.96,15.81L28.27,14.46L28.53,13.14L28.86,10.6L29,8.314L28.95,6.426L28.87,5.671L28.76,5.065L28.56,4.616L28.24,4.265L27.82,4.037L27.33,3.955L27.18,3.963L25.69,4.039L24.73,4.007L23.82,3.917L22.94,3.776L22.11,3.589L20.58,3.11L19.24,2.535L18.1,1.92L17.17,1.321L16.46,0.7916L15.98,0.3891L15.53,0.1139L15.01,0.01797zM22.13,8.722L22.28,8.823L23.8,10.34L23.9,10.49L23.93,10.66L23.9,10.83L23.8,10.98L13.92,20.79L13.78,20.89L13.61,20.92L13.44,20.88L13.3,20.78L11.36,18.84L11.29,18.77L7.258,14.71L7.163,14.57L7.138,14.4L7.18,14.24L7.283,14.09L8.731,12.64L8.868,12.53L9.031,12.49L9.194,12.51L9.33,12.6L13.54,16.86L21.64,8.82L21.79,8.721L21.96,8.688zz" fill="#eab765"/>
      <path d="M21.79,8.723L21.64,8.822L13.55,16.86L9.332,12.6L9.196,12.51L9.033,12.49L8.87,12.54L8.733,12.65L7.285,14.09L7.182,14.24L7.14,14.4L7.165,14.57L7.26,14.71L11.29,18.77L11.37,18.84L13.3,20.78L13.44,20.88L13.61,20.92L13.78,20.89L13.93,20.8L23.81,10.98L23.9,10.84L23.94,10.66L23.9,10.49L23.8,10.34L22.28,8.825L22.13,8.725L21.96,8.69zz" fill="#FFFFFF"/>
    </g>
    <g id="overlay">
      <path d="M26.4801,16.655c-3.1292,-0.0435,-5.6794,2.48,-5.6794,5.5991c0,0.9259,0.2247,1.7992,0.6225,2.5686c0.7906,1.5289,3.8273,5.7955,4.7255,7.048c0.1237,0.1724,0.3796,0.1724,0.5033,0c0.8982,-1.2525,3.9348,-5.5191,4.7255,-7.0479c0.4009,-0.7751,0.626,-1.6559,0.6226,-2.5895C31.9889,19.1944,29.5187,16.6973,26.4801,16.655zM26.4003,24.3091c-1.1349,0,-2.0549,-0.92,-2.0549,-2.0549c0,-1.1349,0.92,-2.0549,2.0549,-2.0549c1.1349,0,2.0549,0.92,2.0549,2.0549C28.4552,23.389,27.5352,24.3091,26.4003,24.3091z" fill="#217346"/>
    </g>
  </g>
</svg>
